Coordinates
version=1
nRows=6
nColumns=107
inDegrees=yes

Units are S.I. units (second, meters, Newtons, ...)
If the header above contains a line with 'inDegrees', this indicates whether rotational values are in degrees (yes) or radians (no).

endheader
time	sternoclavicular_r2	sternoclavicular_r3	unrotscap_r3	unrotscap_r2	acromioclavicular_r2	acromioclavicular_r3	acromioclavicular_r1	unrothum_r1	unrothum_r3	unrothum_r2	elv_angle	shoulder_elv	shoulder1_r2	shoulder_rot	elbow_flexion	pro_sup	deviation	flexion	proximal_distal_r1	proximal_distal_r3	cmc_flexion	cmc_abduction	mp_flexion	ip_flexion	mcp2_flexion	mcp2_abduction	pm2_flexion	md2_flexion	mcp3_flexion	mcp3_abduction	pm3_flexion	md3_flexion	mcp4_flexion	mcp4_abduction	pm4_flexion	md4_flexion	mcp5_flexion	mcp5_abduction	pm5_flexion	md5_flexion	bicpt_tx	bicpt_ty	bicpt_tz	bicpt2_tx	bicpt2_ty	bicpt2_tz	ptpt_tx	ptpt_ty	ptpt_tz	FCUpt_tx	FCUpt_ty	FCUpt_tz	EDCpt_tx	EDCpt_ty	EDCpt_tz	APLpt_tx	APLpt_ty	APLpt_tz	FPLpt_tx	FPLpt_ty	FPLpt_tz	FPLpt2_tx	FPLpt2_ty	FPLpt2_tz	PEC1pt2_tx	PEC1pt2_ty	PEC1pt2_tz	PEC1pt3_tx	PEC1pt3_ty	PEC1pt3_tz	PEC2pt2_tx	PEC2pt2_ty	PEC2pt2_tz	PEC2pt3_tx	PEC2pt3_ty	PEC2pt3_tz	PEC3pt2_tx	PEC3pt2_ty	PEC3pt2_tz	PEC3pt3_tx	PEC3pt3_ty	PEC3pt3_tz	DELT2pt2a_tx	DELT2pt2a_ty	DELT2pt2a_tz	DELT2pt2_tx	DELT2pt2_ty	DELT2pt2_tz	LAT1pt2_tx	LAT1pt2_ty	LAT1pt2_tz	LAT1pt3_tx	LAT1pt3_ty	LAT1pt3_tz	LAT2pt2_tx	LAT2pt2_ty	LAT2pt2_tz	LAT2pt3_tx	LAT2pt3_ty	LAT2pt3_tz	LAT3pt2_tx	LAT3pt2_ty	LAT3pt2_tz	LAT3pt3_tx	LAT3pt3_ty	LAT3pt3_tz
      1.76666667	     -0.35212839	      0.14914497	     -0.14914497	      0.35212839	     -0.07129884	      0.57621211	      0.25900338	     -0.25900338	     -0.57621211	      0.07129884	     94.57025186	     83.36952591	     -1.65056227	     15.96463654	     28.63397387	    -79.56445488	      0.39074309	      0.57130928	      0.40532366	      0.28565464	     23.39834239	    -22.23521597	     -5.11920860	      4.90777800	     16.05409536	      6.80164623	     21.82092005	    -13.83777534	     44.74371938	      3.43550831	     36.16450355	     25.79923392	     51.11923752	     -8.62322902	     23.83352777	     22.72232149	     35.99280677	    -13.95147717	    -12.19840081	      5.01038330	      0.00084712	     -0.03088189	     -0.00482863	     -0.00000139	     -0.01797856	     -0.01021178	      0.01342892	     -0.06109860	      0.00635934	     -0.00205125	     -0.18395267	      0.00584525	      0.00954771	     -0.00127740	     -0.00286916	     -0.00085786	     -0.00034315	     -0.00171573	     -0.00109807	     -0.00329420	     -0.00185299	      0.00000374	     -0.00028083	     -0.00033699	      0.00273267	      0.00958750	      0.00666957	     -0.00893907	      0.02158346	     -0.02047187	      0.00273267	      0.00958750	      0.00666957	      0.00060211	      0.02000870	     -0.01051383	      0.00421107	      0.00533149	      0.01657389	      0.00000000	      0.00930857	      0.00000000	     -0.00782748	     -0.03617314	     -0.00768267	     -0.01562740	     -0.00103418	     -0.00385080	     -0.00097265	      0.01630339	     -0.00666957	      0.00268635	      0.02352875	     -0.01945291	     -0.00653062	      0.01412651	     -0.00597482	     -0.01361703	      0.02982779	     -0.03339415	     -0.02556668	      0.01579391	     -0.00801274	     -0.01695182	      0.03445943	     -0.04173111
      1.80000000	     -0.35226219	      0.14920164	     -0.14920164	      0.35226219	     -0.07132593	      0.57643106	      0.25910179	     -0.25910179	     -0.57643106	      0.07132593	     94.49720815	     83.40120434	     -1.64928742	     16.65847397	     28.74235865	    -84.01544119	      0.40492451	      0.67032849	      0.41533411	      0.33516425	     25.33966271	    -22.98788172	     -2.30459524	      7.71243104	     13.21839472	      6.61070217	     21.91201081	    -13.05252676	     38.59936434	      2.81762720	     32.21578298	     24.29201689	     45.80215593	     -8.25542305	     17.83404735	     22.97577364	     35.47483618	    -14.04534324	    -12.18911333	      5.04600926	      0.00085071	     -0.03089431	     -0.00483063	     -0.00124985	     -0.01800800	     -0.00992688	      0.01375779	     -0.06088594	      0.00671789	     -0.00233207	     -0.18389134	      0.00628508	      0.01008183	     -0.00129115	     -0.00313100	     -0.00106189	     -0.00042476	     -0.00212379	     -0.00135923	     -0.00407768	     -0.00229369	     -0.00000047	     -0.00027688	     -0.00033226	      0.00273371	      0.00959115	      0.00667210	     -0.00894247	      0.02159166	     -0.02047965	      0.00273371	      0.00959115	      0.00667210	      0.00060234	      0.02001631	     -0.01051783	      0.00421219	      0.00533351	      0.01657630	      0.00000000	      0.00931571	      0.00000000	     -0.00783045	     -0.03618689	     -0.00768858	     -0.01636490	     -0.00112780	     -0.00417469	     -0.00097301	      0.01630958	     -0.00667210	      0.00268737	      0.02353769	     -0.01946030	     -0.00653310	      0.01413188	     -0.00597709	     -0.01362221	      0.02983912	     -0.03340684	     -0.02557639	      0.01579991	     -0.00801579	     -0.01695826	      0.03447253	     -0.04174697
      1.83333333	     -0.35027595	      0.14836036	     -0.14836036	      0.35027595	     -0.07092375	      0.57318084	      0.25764084	     -0.25764084	     -0.57318084	      0.07092375	     94.62922736	     82.93094447	     -1.65159159	     15.64711644	     29.01108221	    -86.02446992	      0.41346912	      0.66967989	      0.42120716	      0.33483994	     28.08534729	    -23.42252391	     -1.07053238	      8.12056539	     13.30044515	      6.91795951	     21.84347404	    -13.06047092	     34.34260403	      2.32582001	     30.05906732	     23.65761743	     41.98398585	     -8.76628872	     15.76294983	     22.43730247	     38.09645960	    -14.22218922	    -11.50520503	      5.09049589	      0.00085960	     -0.03092511	     -0.00483559	     -0.00182823	     -0.01808100	     -0.00978918	      0.01390624	     -0.06078995	      0.00687973	     -0.00245681	     -0.18386181	      0.00648850	      0.01032291	     -0.00129535	     -0.00325271	     -0.00106075	     -0.00042430	     -0.00212150	     -0.00135776	     -0.00407327	     -0.00229122	     -0.00000563	     -0.00026399	     -0.00031679	      0.00271829	      0.00953707	      0.00663448	     -0.00889205	      0.02146992	     -0.02036417	      0.00271829	      0.00953707	      0.00663448	      0.00059895	      0.01990344	     -0.01045852	      0.00419559	      0.00530344	      0.01654033	      0.00000000	      0.00921005	      0.00000000	     -0.00778630	     -0.03598285	     -0.00760103	     -0.01529223	     -0.00099298	     -0.00370762	     -0.00096753	      0.01621762	     -0.00663448	      0.00267222	      0.02340498	     -0.01935057	     -0.00649626	      0.01405220	     -0.00594339	     -0.01354540	      0.02967087	     -0.03321848	     -0.02543218	      0.01571082	     -0.00797059	     -0.01686264	      0.03427815	     -0.04151158
      1.86666667	     -0.34917451	      0.14789384	     -0.14789384	      0.34917451	     -0.07070074	      0.57137848	      0.25683069	     -0.25683069	     -0.57137848	      0.07070074	     94.59491792	     82.67016970	     -1.65099277	     15.31583824	     28.72061026	    -87.89801212	      0.41642604	      0.79434384	      0.42321105	      0.39717192	     29.74578799	    -23.87457533	     -1.43932587	      8.93550876	      9.56140033	      5.95156462	     20.49746206	    -13.14864140	     28.22357974	      1.62349124	     24.20905156	     21.39631220	     35.68600965	     -8.06869806	      9.58220713	     21.23572212	     36.29737053	    -14.18641831	    -14.52320331	      5.03195103	      0.00084999	     -0.03089182	     -0.00483023	     -0.00237592	     -0.01800209	     -0.00965566	      0.01404467	     -0.06070044	      0.00703066	     -0.00257202	     -0.18383324	      0.00668093	      0.01054774	     -0.00129815	     -0.00336818	     -0.00134112	     -0.00053645	     -0.00268224	     -0.00171664	     -0.00514991	     -0.00289682	     -0.00000819	     -0.00025209	     -0.00030250	      0.00270975	      0.00950708	      0.00661362	     -0.00886409	      0.02140241	     -0.02030014	      0.00270975	      0.00950708	      0.00661362	      0.00059706	      0.01984086	     -0.01042564	      0.00418636	      0.00528677	      0.01652018	      0.00000000	      0.00915173	      0.00000000	     -0.00776182	     -0.03586970	     -0.00755270	     -0.01494373	     -0.00095084	     -0.00356082	     -0.00096449	      0.01616662	     -0.00661362	      0.00266382	      0.02333138	     -0.01928972	     -0.00647584	      0.01400801	     -0.00592470	     -0.01350281	      0.02957757	     -0.03311402	     -0.02535221	      0.01566142	     -0.00794553	     -0.01680962	      0.03417037	     -0.04138105
      1.90000000	     -0.34754910	      0.14720539	     -0.14720539	      0.34754910	     -0.07037162	      0.56871870	      0.25563514	     -0.25563514	     -0.56871870	      0.07037162	     94.75356297	     82.28533840	     -1.65376165	     14.36349517	     28.75497124	    -88.36896918	      0.41916349	      0.79017452	      0.42505419	      0.39508726	     30.99069205	    -24.03260526	     -0.91057530	      9.16064811	      9.59535989	      6.02548734	     20.52201550	    -13.11897764	     24.82459313	      1.38734982	     22.84720708	     21.01702838	     32.68670150	     -8.26019934	      7.99183476	     20.91348859	     38.13869284	    -14.24298723	    -13.98318739	      5.07399624	      0.00085113	     -0.03089576	     -0.00483086	     -0.00251485	     -0.01801143	     -0.00962133	      0.01407947	     -0.06067794	      0.00706859	     -0.00260081	     -0.18382590	      0.00672972	      0.01060425	     -0.00129868	     -0.00339750	     -0.00133134	     -0.00053254	     -0.00266268	     -0.00170412	     -0.00511235	     -0.00287570	     -0.00000980	     -0.00024120	     -0.00028944	      0.00269713	      0.00946282	      0.00658283	     -0.00882282	      0.02130278	     -0.02020564	      0.00269713	      0.00946282	      0.00658283	      0.00059428	      0.01974850	     -0.01037710	      0.00417268	      0.00526216	      0.01649016	      0.00000000	      0.00906600	      0.00000000	     -0.00772569	     -0.03570272	     -0.00748165	     -0.01395052	     -0.00083566	     -0.00315723	     -0.00096000	      0.01609137	     -0.00658283	      0.00265142	      0.02322277	     -0.01919993	     -0.00644569	      0.01394281	     -0.00589712	     -0.01343995	      0.02943989	     -0.03295988	     -0.02523419	      0.01558851	     -0.00790854	     -0.01673137	      0.03401130	     -0.04118842
      1.93333333	     -0.34631807	      0.14668399	     -0.14668399	      0.34631807	     -0.07012237	      0.56670429	      0.25472968	     -0.25472968	     -0.56670429	      0.07012237	     94.84735447	     81.99388211	     -1.65539862	     13.58080338	     28.82028654	    -88.56305128	      0.41938114	      0.79131985	      0.42520031	      0.39565993	     31.79401936	    -24.11989418	     -0.88330072	      9.20352063	      8.95139757	      5.91742329	     20.29560947	    -13.17017112	     21.68723445	      0.97548105	     21.37808966	     20.56804792	     29.67228707	     -8.41024858	      6.24992668	     20.53895227	     38.87701931	    -14.25905705	    -14.02510024	      4.98681283	      0.00085329	     -0.03090325	     -0.00483207	     -0.00257225	     -0.01802917	     -0.00960709	      0.01409381	     -0.06066866	      0.00708423	     -0.00261265	     -0.18382286	      0.00674988	      0.01062754	     -0.00129888	     -0.00340962	     -0.00133403	     -0.00053361	     -0.00266805	     -0.00170755	     -0.00512266	     -0.00288150	     -0.00001067	     -0.00023326	     -0.00027991	      0.00268758	      0.00942930	      0.00655952	     -0.00879157	      0.02122732	     -0.02013407	      0.00268758	      0.00942930	      0.00655952	      0.00059218	      0.01967855	     -0.01034035	      0.00416229	      0.00524352	      0.01646720	      0.00000000	      0.00900135	      0.00000000	     -0.00769832	     -0.03557626	     -0.00742807	     -0.01314320	     -0.00074711	     -0.00284450	     -0.00095660	      0.01603437	     -0.00655952	      0.00264203	      0.02314052	     -0.01913192	     -0.00642286	      0.01389342	     -0.00587623	     -0.01339235	      0.02933561	     -0.03284313	     -0.02514481	      0.01553330	     -0.00788053	     -0.01667210	      0.03389083	     -0.04104253
